<svg xmlns="http://www.w3.org/2000/svg" width="39" height="35" viewBox="0 0 39 35">
  <g id="Group_546" data-name="Group 546" transform="translate(-1365 -233)">
    <rect id="Rectangle_17" data-name="Rectangle 17" width="39" height="35" rx="3" transform="translate(1365 233)" fill="#e7efff"/>
    <g id="discount_1_" data-name="discount(1)" transform="translate(1364.514 240.47)">
      <g id="Group_438" data-name="Group 438" transform="translate(10.359 -0.002)">
        <g id="Group_437" data-name="Group 437" transform="translate(0 0)">
          <path id="Path_178" data-name="Path 178" d="M28.684,10.291a.588.588,0,0,1,0-.52l.748-1.531a1.742,1.742,0,0,0-.752-2.313l-1.505-.8a.588.588,0,0,1-.306-.42l-.294-1.678A1.742,1.742,0,0,0,24.608,1.6l-1.687.239a.588.588,0,0,1-.494-.161L21.2.493a1.742,1.742,0,0,0-2.432,0L17.545,1.678a.588.588,0,0,1-.494.161L15.363,1.6A1.742,1.742,0,0,0,13.4,3.029L13.1,4.708a.588.588,0,0,1-.305.421l-1.505.8a1.742,1.742,0,0,0-.752,2.313l.748,1.531a.588.588,0,0,1,0,.52l-.748,1.531a1.742,1.742,0,0,0,.752,2.313l1.505.8a.588.588,0,0,1,.306.42l.294,1.678a1.741,1.741,0,0,0,1.717,1.447,1.79,1.79,0,0,0,.251-.018l1.687-.239a.588.588,0,0,1,.494.161l1.225,1.185a1.742,1.742,0,0,0,2.432,0l1.225-1.185a.589.589,0,0,1,.494-.161l1.687.239a1.742,1.742,0,0,0,1.968-1.43l.294-1.678a.588.588,0,0,1,.305-.421l1.505-.8a1.742,1.742,0,0,0,.752-2.313ZM17.671,4.823a2.122,2.122,0,1,1-2.122,2.122A2.124,2.124,0,0,1,17.671,4.823Zm-1.1,9.436a.579.579,0,0,1-.818-.818L23.4,5.8a.579.579,0,1,1,.818.818Zm5.724.98a2.122,2.122,0,1,1,2.122-2.122A2.124,2.124,0,0,1,22.3,15.238Z" transform="translate(-10.359 0.002)" fill="#2c7be5"/>
        </g>
      </g>
      <g id="Group_440" data-name="Group 440" transform="translate(21.336 12.152)">
        <g id="Group_439" data-name="Group 439">
          <path id="Path_179" data-name="Path 179" d="M291.416,310.141a.964.964,0,1,0,.964.964A.965.965,0,0,0,291.416,310.141Z" transform="translate(-290.452 -310.141)" fill="#2c7be5"/>
        </g>
      </g>
      <g id="Group_442" data-name="Group 442" transform="translate(16.707 5.98)">
        <g id="Group_441" data-name="Group 441" transform="translate(0)">
          <path id="Path_180" data-name="Path 180" d="M173.3,152.646a.964.964,0,1,0,.964.964A.965.965,0,0,0,173.3,152.646Z" transform="translate(-172.333 -152.646)" fill="#2c7be5"/>
        </g>
      </g>
    </g>
  </g>
</svg>
